/* XPM */
static char *image_part_002_resized[] = {
/* columns rows colors chars-per-pixel */
"64 64 78 1 ",
"  c #060607",
". c #070709",
"X c #07080A",
"o c #0B0B0C",
"O c #0F0E10",
"+ c #100F10",
"@ c #141215",
"# c #16171D",
"$ c #1A1719",
"% c #1A1A1F",
"& c #1E1D22",
"* c #211F22",
"= c #242225",
"- c #282526",
"; c #26252D",
": c #29272B",
"> c #2C292D",
", c #322D2F",
"< c #2D2B31",
"1 c #312E33",
"2 c #2E303C",
"3 c #343135",
"4 c #393336",
"5 c #35333C",
"6 c #39353B",
"7 c #3D393F",
"8 c #353641",
"9 c #393740",
"0 c #3D3A42",
"q c #3D3D4A",
"w c #423D43",
"e c #423F49",
"r c #464046",
"t c #4A4347",
"y c #45424C",
"u c #4B454B",
"i c #4F484D",
"p c #51494D",
"a c #464552",
"s c #494752",
"d c #4D4A54",
"f c #454758",
"g c #46485A",
"h c #4D4C5A",
"j c #534D55",
"k c #584F53",
"l c #524E5A",
"z c #575056",
"x c #5A5256",
"c c #55515C",
"v c #5B555D",
"b c #5F585F",
"n c #615556",
"m c #60575C",
"M c #62595E",
"N c #4E4F60",
"B c #565361",
"V c #5B5661",
"C c #5E5964",
"Z c #585768",
"A c #5E5B69",
"S c #635C64",
"D c #695F64",
"F c #645E69",
"G c #6A6166",
"H c #67606A",
"J c #6B636B",
"K c #706467",
"L c #71666C",
"P c #74696E",
"I c #6D6671",
"U c #6F6873",
"Y c #706770",
"T c #746A72",
"R c #796D73",
"E c #796F78",
"W c #7C7076",
"Q c #81757A",
/* pixels */
"$=-=====&&%=*=&&%#%&*&$*---:-;-->1>,:,,,343,;:,>:;<1>><>;<>;<>>+",
"=uuyuruq80qere85256009tipkknkskvSxlvvSSDKLSllcSSclvSSCClBSScSSw+",
"=yq0eqe98qwwe5897777wwiiknknkkxxxjjlclvmMSCllmvlhjcmclljcSlccl<o",
"=rr009969r0w00we76wttwtknnxxxmxkjjkjjjvvSSclcvlsjdlkjvlvSmclda;o",
"&r0858wwwrwewtrwe7tpttpkknxkmcjjjkkjzxmDSvclcllklcvjjlllvllaaa1o",
"*0530tuttupiurtuwtiuikkkznzxkjvxkvvvmDDDSvllcvcvmmldjldlddaaak1X",
"=95wtputupiirruuuwuipkjkxxxvkkcllklvxDvmvlvlvScvllddjvljssadjc<o",
"&00uuppuuuuryruuwwuppklkkvvvclvkldkvmcvScvvvMSvldddjcxxdasucxv1o",
"&0wpuipuuppuuuuueuiijkkkkxvxcjvvlzxvMvmvvccvSSclljklkcldjjlxcl1o",
"*tttrupppppiijprrjpkxxkxMMvmcjcvvlmDMvvcvhlvvDvclvcllvldlkkljy;X",
"=pttuutidujjjzjukkxxxmnMMmvvkcvxcxSmclcvljmvmScclldsvkljsljday:o",
"-kuppukjpijjzkjjxknxmMMMmDvmmMSmSDSMclxlcvvSSSClsassljdsskdysd1o",
"-pupipjppjxmzjkvxxxzmDmMDDSSvDvvSDvvccSvcmvvSSccsslcvjdjjlsujk1o",
"-pppipjjxxmMxjzvnMmDDMDDDDSmSDlvMvvccvvxvSvvvvcCllxmvkkcjkscks1o",
"-kpippnnMMMMkjmxKKMDKKGDDPSDSclvSSvSvcvSSSccSvvShjcvlsljjlkvjs1o",
",jjxxjnMMKMSlvmSLKDLLKJSPPFDcllcvcvclcSDSvvSvllvhvvvjcljljlxjj3O",
"-kxxjznMDGScvvmDDDSJDDFFPDDABlvCSSSBlSSvccvVllvSvvcllllkvjlmjj3O",
",zzvxmnDDDxSvvDGDSCSSSFPJFISSFJSDDVlmSchcCVcldvDCllllkcxvcmvjl1o",
":kkxMvMDmcvvlvDDclSSSVSGFPYYJYFSSVclvvlhvSclsdcvhjvvvvcxmSMxxv1O",
":zkvxxvmvlccvDDClcSDSBSFPTTTJJSFVlllcldscmhhslvlllCmSCxmDDSSvl1o",
">MmmMvMvvvSvSScllSSSVVJRERYTFAHFBlSvvljlmvlddllxvvSSvvSSGDSScv1o",
",nmMMvxSSSmccldlcvcCCSJRYIFFAIHSCBVCchlcvlhssdjcvDScSGSDRJSCCl1o",
",DMMvvMvcvvlllccMSmDGLLRUFFFHIASSBVScljcladesjvvSmcvDLLLLGDSBl3o",
",MMvvvbvmvccSmmvDGSKRRPRUFFHIFISVBCSCllcdjhslxxmMSCDLRLSLPJBlB3o",
",DmvvvvvvvSSScvSDSSDTTYYISIFJIFZVSSSNllsdhdjjkmSmvSSDJDFLFZBlB1o",
",DDvvvmSSDDDccvSSCSSDJFFJIYIIIAVSFVVNhglklcvxvmxSDSvSFVSFFVNhl3o",
",DMvSMDSSSSSVcSSSvSSFFFJJIJFFJAVFSZZljcvlxmDSmDDKLCvSSVBSVNhhB3o",
"1GDGGGGvvvCvcVvvllClSSFJDIZZFFZZZVSVBCSccmDKSDKLJDSCCSSFFlhlBB<X",
"3DDDSGSSGSDSCSvcSvCSCSFFFFZVAAZBVFFFVFVVSGLDDJJDSDFBvSSSBllBlh<o",
"1SDDSSDJGDJGGSCCSVDDLJSVFFVVSFFSJTJSFDSSDPGJLTJSSDSlCDScBlclhl1o",
"3JGSGFJJSFSGHFSVlvSSDSBSFVNVFFSFFJVZJJJFDJJLPRDVSSBcSJBcllhgll<o",
"4PGDJGJCVFFFJGCBCSSvcCcSFBBFFVFIFFSFIDFFPPPRTJFBCBBlSSBlhhsdlh;.",
"3TFSGJJVSJFFJVBBcCSCCvVSCcCSVCGHSAFISSIFIFHIJIFVNBBcSSlghsjljs;o",
"3GCVFJFCGFCABBllvSSCCcCSCSSCVFJHZVFFFITFFFFIJIABBVScClsassccja;X",
"3GVVSJSVFFSVBBcCSGSCvcCvcVBBVCACVSFSJTYFFSFJFFZgglhclgdffdjdeq;o",
"<SVSGJFFJJFSVlcSSGCcVVvhhlccVBVSFDFFTTIIJFYYFSNfglllllhddldaqq;X",
"1SCGJJGFSVVABhcSFCcccllhllcclVGGJDJDTYTIIIIJHSNlhlhddsssasaaee;O",
"3SSFGSHCBVVSccSJScchhhdhldhllDSSFFZFPJIIHHTIISZVBlldhsgeqqqead;o",
"1SDSSFJCCCSFCCSFVlhcasaddddjvGSDFVSPRREEEEEUIFZNhfsldsayeeuysj<o",
"1PDSFJFCFBSJFCSCBcBchddcjdlvMSSCSFLREEQQEEEUIFZfaahlayaysaaupj:o",
"6PCSSJSSVCJJFCSFCBcclhcvdcxMSDSSSDIYTTEUUUUIHANffhlldesuuausjj1X",
"4VCCSGFVFJTJCCCCchcvlcvzvmvvMLLSDJPRTTUTHAZZZBNfssldasjjsiujkj1o",
"1AFSLTHSJJFVVVVlclCvvvvccvvvGPKDJDFTTUTUANNZBfghgdljdjsssayijs>X",
"3JSFJJPFJFBVVCNhVCCvCvvvjhkMKPLSFVFJUUTAZZZNNghhhlSljdssuuejii>X",
"3JFHJYJFFCFFCClCDSBvcSvhjlMKPPPFVVDYIJABNNBNBBCCcCSllsssuiujjs>o",
"6ICCGGJACZFSBVVSSCCVvvlhvDKLLJFVASPYIVBlffhhBVCSSSScldjkdsskjp1o",
"3SVSFJFVVVVVBSCSCSVccCvvSKSGDSVBFJJJSZZNghNlCcCFDFSvcddksspjjs>X",
"1AVVSFVBVBVVBCVcVVcVccvSLLSCVvVCDJFFFVBggBVSSCSSFSSCchljjssdue>X",
"<FCCGSCFCCSVVFVCSCSCcmDJGSSCVSVSFJCASBBBBclCVVCSFSVVhhddjsdjii>o",
"3JSHFVJHVVCVCGCSSCCcSGJSSSSCSSSDFFClVSSVcccVlBVDFSVBhllvkdjjjd>o",
"3YGJSCAVhBVVcCBCSJDGPPSGGDSVSSHGFCVBCFVBBvvvCvSDSCSSBccSljllsu:o",
"3TJYVVBlhBVccCSJPWITTRJJJFSCSFFGCCBVVCBllCcvcCSDVFFVccvcllksyd<X",
"6TTFBCCVBVScSDJJJPFJIJFJFAGFFSFSCccCVVcVcCccvSScVVBclVcccvldjj<o",
"6EJCBCVVSScCSSFSFFFFAAFJHGIHGCCFSBSSVcBcCcCCSSvlCBlBBVlCcvlddj>o",
"6EGCCVVCSCSSSJSSGPJFFGIIJHIJFCSGVVBccccvSSScSSclclllhhccvvldjs<o",
"6EFAFVFJSCSCSDSSTEJIYJJHAFJIFAACBBccllcSSCvSSScllvlddcllvcllda>X",
"5UAABVCFlcSCSSSGRYFIFFJFFSISZBVVCVCclcCSScCvCcclvvvlvvvSSlllay<X",
"5UHCCCCCBccFSSJTTJJJFHIJFIFVBCBhVSVVccCmVlcCClcCSSmCvMSGSccdss<o",
"3TFCVACCBlCDSLJPJAFJHIJIHHCAJCNhCBhldhcvCcCclhlvSCSvSDDLScllhj<o",
"6IAZCBCCcCDFJTYJSAJIUIITHAFFFABlVcchdljSmcclllcCScvvSSSSccvcds:X",
"3JFFCSFVCGDKPPGFFHJTIFJIZZJFCBBlVCVlhlvccccdvvSCvCcCSSChcClgsa;X",
"6WJHGSSHGGJRRTIJGFHJZFJZAFAZCCBBVVVllccvBlllvDvcmCSvVSlhccgafy;X",
"3jw0767ww7wttww077w0906556556953133<1111313343336613362<11<;;;#X",
"@@ooOO+OOOOOOOOooOO+oOOoOOO+OOOoOOooooooooOooooooooooooooo.o.XX "
};
