/* XPM */
static char *image_part_004_resized[] = {
/* columns rows colors chars-per-pixel */
"64 64 67 1 ",
"  c #1A1917",
". c #201E1C",
"X c #23211E",
"o c #232120",
"O c #2B2926",
"+ c #31302E",
"@ c #3F3F3F",
"# c #5D5E5E",
"$ c #645E56",
"% c #8E867A",
"& c #8F887C",
"* c #90877C",
"= c #918A7D",
"- c #868281",
"; c #8F8983",
": c #938C82",
"> c #9C9790",
", c #9D9A93",
"< c #D4CABE",
"1 c #C5C4C3",
"2 c #CECAC5",
"3 c #CECDCC",
"4 c #D3CBC4",
"5 c #D8CDC2",
"6 c #D8CFC8",
"7 c #DED2C6",
"8 c #D6D3CD",
"9 c #D9D5CE",
"0 c #D4D2D1",
"q c #DAD6D1",
"w c #DBD8D4",
"e c #E3D6C5",
"r c #E6DBC7",
"t c #E2D6CB",
"y c #E6DACC",
"u c #EADECB",
"i c #E1D7D2",
"p c #E5DBD2",
"a c #EADDD3",
"s c #E4DDDB",
"d c #EADED9",
"f c #EEE2CE",
"g c #F1E3CF",
"h c #EEE3D2",
"j c #EFE9D7",
"k c #E7E0DD",
"l c #EEE2DB",
"z c #EFE8D9",
"x c #F3E6D2",
"c c #F8E7D4",
"v c #F5E9D4",
"b c #F9EBD6",
"n c #F3E5DB",
"m c #F8E7DA",
"M c #F5EBDB",
"N c #F9ECDA",
"B c #F7F0DE",
"V c #F9F1DE",
"C c #EEE5E2",
"Z c #EEE9E9",
"A c #F3E6E1",
"S c #F6EAE2",
"D c #F9ECE2",
"F c #F9EEE8",
"G c #F6F1E3",
"H c #FAF1E3",
"J c #FAF2E9",
/* pixels */
"@########$######$#############################################$+",
"#1w9qqqqqqq9q28qqqqqq9w99www9999wwqwwwwwq99qqqww8q889qq99989qq,O",
"#wNbbbbbBGVbnzhbVbVbvvNbVVVbNMjBBHHDNNMHMvvMMVVMxvhvBbvvvvvBBv=o",
"#9xxffxxxBvxvxbbbvfffxvffjBbBMxBvMMMvcvMMMxxxvHxMMfhfvfvvfjjBB=o",
"#9xxfffffjvxvvbvjxxxxbvvvBGVBjVBcDnngvvNNxxMBBVvvxfxfxfffvvffv&X",
"#9vxff7ffjBfffxxfvbbvvvNVGGVBBVVbNnxxnxMlxvzjvvffMBjxfffffffff&X",
"#9vvfffffxjfxfffxxvMbMHVVVBvMNbbNbNxnnpnhnzfvvfffbBvxfffffxjBz=o",
"#qNvvvvxxbbbxfffvbxBMBNbBVxvbNbVNbMnNnVMvMjfxfffhbBvxxfxfvvvjj:o",
"#9bbvvvcbNbvuaudnvNDMAAbVHNVNNNbNNVDNMVxvjffffxfvfBvfvvfvbvxjB&X",
"#qbvvcccnnannxxxSJDAADlSJHFHFDSFVbbDBMxghjxffxvjvvBjvvvvvvvBBv&X",
"#qbvcvvnnNvccxcNMNNMNDSDDJHNNcbVSmbDSbffjffxxvvvvvBvBvvvvxvBjf%X",
"#qbgcVHSSNbvcvvxgcbccbDmbDHNcxxbmnASBxrjMfffxvvxvvffjvvvvxjjff&X",
"#8vcxmnnMSBbvbcfxgvbbbcgcNvNBjvxnNnHbhfhfxfxxxvxvvvffvvfjxxBjv=X",
"#4xSnnnnbvMBvccggxcbbbgvNvxvBBMvNNVVvghjffxxxxvvvvvjffvvvvxVjv=X",
"#8xnmAbvxvxSMbccvhxcccgvbxxxBBBGHBVbxffBffxxvvvVBVvvvvvvvvvBBB=O",
"#9cgxcbbxvxvDHFSlitbxgjfjjbxvjzVSMvvvgvBxxvvxjjbvvvvvvvvvvBVVV=X",
"#9cggcccxcxcbHZAl<7MGMfffvfffvvbjGvxvxMvxcbcxfvvvvvvvvvvvvvBvV=O",
"#9cxccvvbcbbbNnnnppMFSjhvvfvfvvvjBMjvbxxbxxgxvxxvvvvvvvfvvvvvv=X",
"#qcxxxccbbccggcNDlxNxhjzfffxvbBvxxBBxxxxxcxgvbbxvvfrfvffvvvvvv=X",
"$0xgvvbxgccgcgvnmnnMBBMhjfvfvBvvvvxBbjgggxcxbvxxvvvvffvvjfvffv=X",
"$9ffxVNbccuxcyannndnbvjfzjxfxxbbxgxVvxfugggxxxvbvvvvvvfvfvfffv&X",
"#9vvVNbbbmcdaayapnvNbbjhzffjxjvvggcNvgfxxbvbDxcvvvvvvjvvffffff=X",
"#8ffvbbbDDmlaacchAnnbvvBGjfffxvvvvnnSvggccvVNdnNvvvvfffffffvff%X",
"#qvfjBbbmAmmAmmAnlnMbvjjxjxfxvvbNyMSSnegcbvSCADHBjvvvffvfvfvvf=X",
"#qjjjVvvbVBBAmccldnmbbbvxMMMvvbbnnllliphcmnSZAAcvBbbvgvfvvvvvv&X",
"#8vvBvvvbbMMagmcnAdmcbbbvvvvBBBMAnlnxdlnndnNmAAxvVbvggvvvvvvvv&X",
"#9vjvvvvbbnAaaanccvxdbbcxxfjxxxvAdpcgxmllgcNcmApfxVvvvbbvbvvvv&X",
"#qVvxvvbVbndymcuxxxdnxcgfxffxggbllnnmcmlxfccmnAifvbbbbvvbvvvvf&X",
"#qVvxvBvvbmhxcmdnaAlm5gcxfffffgxlAmdaDmnccfgdltwbxbVbbvvbbvfvg&X",
"#qvxxBbvcbnlaglslmAldtbcfxffffxvDSna7gnlmbgznFkSBNBMvvvvbvbvfv&X",
"#qBxvvvvcNSxccgdnAnsiabcxfffxxxxcmglxmcmyrMMSnlMVHvvffffvvbvgg&X",
"#qvxvBvfcnmaamanplaa3abcxfrxxxxxcmamcbbct7yplnaxvGMvvvffvvbbbf&X",
"#qbbVNbbxxmxyCsjnnanmnmmfffvvNvvbbvvbbVVVVbbbbbvvvVBBhfffvbvvv&X",
"#qNMbnNnfynAkzzfn7sAmDnafxvvvvNvccfxxvbVfxbbbbvvfvBGvxgffxxxvv&X",
"#qNnnnnM<5nbMnr<a7pAmAlaxxxfvvbbxgxjBBVvvvvvvvvvvvBVvhfffvxxvv&X",
"#qNbbccctraccvreamnAmAnaxfxfxxxxxvNvxbVxvvvfxxfvvvvjBhfffxxfvv=X",
"#qNbvxvxcxugffvgcmldmdCAxufvcvvxjvffxvBxbvxvxjxfvBvfjvffgcxafv&X",
"#qbvxvvvcxgxvrfvchdmllmnvhnDNMNMvxxvxvBMxxvvNvxjvbbxvBxxxxAhxx&X",
"#9bvxvvvcggxffrvcnnnnhccccvDDnnNvvvfffvxMxvxMBvbvNvMMMxfnnmnzv&.",
"#9hxxgvvcgfgvfrffnAduubbbvvNbANDBbxxbjxfMNxxjMnlfvMMSvuegnmmzx%.",
"#wvffxvbvvfvvrffxccxccccbbxbvAZnGSnnnnvcbVbxnnnnhMvNbbbVDmMccx%X",
"#qxffxvNBvvvvffvgfggxcccccbNMzAnVHSFnggnnHmlSNvNvMjhbNVBnMHMff%X",
"#9xjxxvvfvvvvrvvguxcvvcbvvvvVMDnMbbvhdAmSNvcbbbffufhxBjfcbbBxf%X",
"#9xvxxvvfrvfrvvvurfxvvbbbvxvbvNvfuxxmnDAMNbcbbxffffjBvvxbbbbvx%X",
"#qvvvfxjjffffxffrffxvbvbbvbVbbccguvbNHDAnNVHbNvfuufffjvbvvbvvv=X",
"#qbxvxxBfvfrfvffffffxxxbMNVbcxcxMNBGHNbvxcbNVNBBjjjjfxbNvvvvvN=X",
"#qBfvvfBvvvfrfxfffxxxgxvNNmNnlccvbbbvbbccbbbVbvxxxvvMfxvbvffxb=X",
"#qbvvvfjvvvjffvxfvvvvxvNvcbnAdAmbNbbvcggcbbNNvhxjfjhjjffxvvxvx=X",
"#qBvvbxhjvvxvvvvvxvbvvvBbbNMmnADbbbbbgggbbbbVVvbxxxvxjvfffjvvv=X",
"#9vbbbvhffvvfvvvbvxvvvvbbNSMcnAmcbbbcccbbbbbbvVvvvxvxjVvfrffff&X",
"$9vvbMufxfxvffvbvvxxxxvbAAMvcxCCvcbbbggcbbbvvvbvcxxvxvBvvfxxvv=X",
"#9vvxufffjxvxfvvxgxfxfxvNDDxvhwZnbbbbcggvbvvfvffcbxbvvjVxffjff&X",
"#qvvxuguffxvvxgggffxfxvvbbNnnypNbbnNgfffggfffffvgxvxvxvvjjxvvf=X",
"#8xBxuuuffggxbbbbvgfxxvbvcvbmvcbNbbcgfggfgfgfvfvvxvvvvvvBBBbvv=X",
"#2BGvguffgxxxcvMNbxggvvvvvvxvbvxvbbcgxvvvffvvfjfvvvxvvvbvvvvvv=X",
"#qBZNccffvcxxydxvbbvvvvvvxxxxvcgvvcgvbvvffrvvvvvgggvvvbbvvvfvv&X",
"#0lADmmcnnmxddyivxvbbbbvxxxfxgxvcgfgcbcgfvffbbvfvvvvbbbbbbbxvv&X",
"#38ADDAnnNadmndavfxvbbbxxvfxvvvvgcbbxccgvgfffbvvvvvvvbbbbbbbgg*X",
"#0lAADnaxhpnlyhhvvvvvvbvvvxxvvvgcDDcgvcgvvvvvfffgvvvbvggvbbbbg=X",
"#wDmmmnainmnne5avvvvbvbxxxxfxvxxvNSNgfxgvvvfffffvvbbvxffvxxbbb=X",
"#8AAgcgcxbbDmuacbbbvvvbvvvvfccxgbxdbcfgxvvvffffvvvvbgffrfgcbbb=X",
"#0AnccccbbNDAcbbbVbvxvvvvvvxccvcbd6bcfbbVvvvvffBbVVvfffffgcbbg=X",
"$>*;::=:::::::====&&&&&&&&&&===:=;-=======&&&%&===&&%%%%%%*===$X",
"+OooXXXXXXoooo.oXXXXXXXXXXXXXX..o.oXXXXXXXXXXXXXXXXXXX XXXXXXXX "
};
