/* XPM */
static char *image_part_003_resized[] = {
/* columns rows colors chars-per-pixel */
"64 64 56 1 ",
"  c #070607",
". c #070708",
"X c #080709",
"o c #0A0A0B",
"O c #100F10",
"+ c #151315",
"@ c #161518",
"# c #1B1A1D",
"$ c #1E1E23",
"% c #211F23",
"& c #242226",
"* c #282527",
"= c #26252A",
"- c #29262A",
"; c #2C292D",
": c #322D2F",
"> c #2D2B31",
", c #322E33",
"< c #353135",
"1 c #34333C",
"2 c #39363E",
"3 c #3C383F",
"4 c #403A3C",
"5 c #363640",
"6 c #383741",
"7 c #3D3B44",
"8 c #3E3D49",
"9 c #413E45",
"0 c #413F49",
"q c #454047",
"w c #484246",
"e c #45424B",
"r c #4A454D",
"t c #4E484E",
"y c #504A4F",
"u c #464551",
"i c #4A4751",
"p c #4D4953",
"a c #4E4C59",
"s c #524D54",
"d c #534F59",
"f c #575057",
"g c #595156",
"h c #56515A",
"j c #5B545B",
"k c #5F585F",
"l c #61575B",
"z c #62595E",
"x c #5C5661",
"c c #5E5861",
"v c #635B62",
"b c #685E63",
"n c #665F68",
"m c #6B6167",
"M c #6C636C",
"N c #716569",
/* pixels */
"@&&&%&%&&%&%%&&*-:***:--:;;:::<<::,>;>=-=;=>>>=;;>>><><,>>1<1<>@",
"&rsrwewerweqrrrssggsysgsjjzzbbzzjkxjcjhadpuxhaahaaxnMcccxMMMMMq+",
"&rrwe9w9wwqqwwtyygsrqssggszzchhjjjhjxaasspppuupsaihcchxxcMcMnM7o",
"&ryrqq99wq9wwtyygfstsjgggllgpissjhjkjappauriuuappphhdhjcncncxx<o",
";ssrqq9ee9wwwryygssssfsjgzjpupsjjhjdppipsppppprsapapsdhcxcxxxa1O",
"-ssreqqrw9qqwwyystsrsflbzzhpsjjzvhduddahsasptpsjppriiudhaxxcxa1o",
"*frerqqe99wqewysspsssfjjldppsjhvjppdhsdpipprppfsppepppshxxxaaa>O",
"-seee0reqerywwyytqrpsfpssruupdjjddjhpdjhffppffhspeupiphjxxxuaa>o",
"-irrrysrrryrwrryreysgfeppursjfjhdhdaphjjdpddjjji8rrrrsfjxjjdha,O",
"-sstssrewerytryyrsgfssrserpjfhjjjdhppjcdipjjjhse8irrsssshxchhh>o",
"-prysriqqryrqqwrtyfsyprpepsssdhdddauphjpisfjhda88rtptprfkvddhh1o",
"*pysssperst8779rysgprspprpssshpdppiphjhpsjhdaai8rpstrrrzbhphhj1o",
"-prsfsirsre9789rytsrpjsiesspsipsppipdspdpdpdddp8etsprrpjhpdhhh>o",
"&usfirqirerreqrrqrtpgsiiuieeirpshdipsisspspsapieeasprsfspupppa>X",
"&sssptrpirieqqwrwrsgfsieqrpssysfjpissssdhssspaprertrrspppeipaa>X",
";lsrtpsirrr90qrtyylfssprpstssfjjjppjdssjjpasssp8eyssprrpppsadu>o",
"*fitrpreprr8qryesslssgsrrpsfsgjfppffpfhffafjfhuurpprpeurrppsfp>o",
";fsirreiiirrrtrrsysggsirtfsfjlssppipipfjpfjhaa0e8rprrqrprrrrpr<o",
";fserrpr0ererrrryslgspisssfjljsshatppfljpfapapu8erprrttsrrpssf<o",
"*seerrr0ee0etrrrtylssssssfljzjsfffjjjjjhaffupi08etsrrsttrpjfjf>o",
"*i8rererpeqqerrytglssjjpsjljhjjdffjzkkjjpppiee8ertrreusysfjsfp<o",
"*irreirsrr0qqreysgfjjlspjljjjvhaafjzvvkhhaiiieeurreretffffprss<o",
"*arerptpirq09rtyggsjjhshjljcjhhhfjzmvcjhhpirrprrprrretffftrsff<o",
"*p9rrrttere99yyslssjjpdhhjhhphjhjkzmccauuupuiprtrrrrqssspptgsj<o",
"&88ere0e0reeqrygsfsljsddjhdpdddjvjcccjauuasirprtpfpreyssrsfppf<o",
"&88qqqq0rq8qryysysglhddsjpdipsjbjjjjjauupfappfjjfsretyfasfprfj<o",
"$8qtrrrqe8qrryyyfslspdpadppppjvjhhaccauaffhppfjfseeettprsfpflj<o",
"&yttyyprrrsrqyygsfhihpipiuiafjjaaajcaaajhhapffjfurreeerrpffjgj3O",
"&rerrreeerr09sssssssspeeeispsjjpahkhaahhhafffhhhpue8eqetygjjjb4o",
"&r8qeqe8999wyggsryfjspsspsssppppjksaahaahhhhfhjaeeeeqeettfjjbl<O",
"&e9qqqq7wqerssgyislsssspsssssspjjhajkhsjhhappaaie8u8qrttyfjzmh<O",
"*qqryw9qtreyyylysglsdjsdjjjjljfzzhhkhhhjapppppu88r88rrryyfbzjf<o",
"&rwryeqrwwtggjzfflzfhjjhjvkjbhhbzhhjdhdpaippiue8ee8rytryflzjhf<o",
"&rryreeqwylllzzjzzvhjzjkjjjvvhjjhhkjhhaipphp8uae88etsrffglspaf<o",
"&trrrwqrylllglvzzzzhjzcvjjjbchhhhhhhsauuppaeeap88trsstspgfsffh,o",
"*prrqqrrtysysjjjzbcxbbbxhhvvhhaxhhaaipsapppeeureeyysfrrsysffhh1o",
"&re8qqrrwtsjjjjjjxvvvcchajbxhhphhadppfapfaruesprtysyfrtrrpsffa>o",
"&e879qqerylgjjjjhjjcxbxdhvxhhaiapuppahahaprrerrttsfsfrrrptfspp<o",
"%e89wwwwyygjjjjhhhcmnnaxhhhaappaupsaaappapuerptssfsfsrpttfjsus<o",
"$qqeyyyygylgjhhhjbNmcxcauaiasaaduhhprrpspeprspfpptrpppsstflppf>o",
"&irtrryyyljsgfjjvbvxhxauuahhjhasusaepppprpppjgftrttarpftsjjpts>o",
"&rteqrtygfssjfjjjxxxxdauuhjjhhdpusprppprppsjjfsyfjprpsfsjfssff>o",
"*prqreeysssfffjhhjxhxauupadhdpuuipuprpuursffjapsfseutpfffssjfs>o",
"-prrqerrrrrsffsshhdhaauuupaspuuuueee8prrppppppppsreritjhfjjjpp;o",
"*srrewqrrrrsfpshhpdhxuuuppppuuiuure88rerrrrptppfsuprrfjsfhjaur;o",
"-fsprrrtyypfjjsjdpapuuuaaipsereeue88rqr88pspssfjhpprtprppsppaa<o",
",lspirretrsfjshspappdpaiupap6u8rueeerreeesspppffappuerrsffpsha<o",
",vhprqqwwrssssdpppphjaaipur8epppr8rr88qqytqrpffprueeetssppasfp=o",
";japieirrygssffsppshjppusrptppte6qe88ewryewyfppprrurrpttrpprae=o",
">vhipsfsyssfsgjppfjjspfhhaspieq88erqqrqrtresspffapspffprrprpie>o",
">xaisjppyrssssiirffapppsairuerq8eqe8qq8qreetrrppupppfrrererrru>o",
"=apisdpsrpyreeissaueuuruu68e8e8qq87q87qqeetreererrrtpprsfpfpfp-o",
"=xadjhssrsprrrspaprpuuer8878888887q777qqwrteqqeeeurppripfppppi-o",
"=xhjdppuifsspeesfu8rre8re878866867767q7qyrq77reerrereeeprrpppr-o",
">xddsspsjlhpe0sspe6rr8ee886qq8997716676wt87q8qqe88q868rurprrrp>o",
",xdhdhdjjjdu88rquuerr88eee8qqq9677222223978qqq8688q66868e88eru=o",
">ahjdsdhjsiu68ritrere8qqr89rqq6632112339q26qq227q7127278878eee-o",
">xjjhjddsuie8ussse8etqee98qqe686763793943227512q727939rqq8qqtr;o",
">cxxjhdsppueqrtrr88rq87679q666512233q92313q912qq9wrqqttq77qere;o",
",nxhhhdadpurprspr98e88qqqrq87611113wq332333787379wqqwwq627qwq8=o",
";xhhahaahpipppsteee8878qrrq66721<24wq4713qq9qq727qqwew8237q7qq*o",
";xaxxauapupsssrrre78q89eq667721<13qwq1123434723qqqq7qq7qwq7qrw-o",
";9,1>>=>>>,,>-=>-=*--****&&**&&#&&**&$&**&&**&**-*&*-**---*---#o",
"@+ooooooOooooooooooooo oo..oXX....XX...XoXX.....o..o.oooooooo o "
};
