/* XPM */
static char *image_part_001_resized[] = {
/* columns rows colors chars-per-pixel */
"64 64 68 1 ",
"  c #1B1917",
". c #221F1D",
"X c #23211E",
"o c #232220",
"O c #2A2825",
"+ c #2B2928",
"@ c #312F2D",
"# c #3F3F3F",
"$ c #5D5E5E",
"% c #645E55",
"& c #7C766F",
"* c #777370",
"= c #8A8477",
"- c #8E867B",
"; c #8F887B",
": c #92877B",
"> c #928A7D",
", c #8E8681",
"< c #8E8886",
"1 c #938C83",
"2 c #949186",
"3 c #9A9691",
"4 c #C4C3C2",
"5 c #D2CAC2",
"6 c #D8CEC4",
"7 c #D2CFCC",
"8 c #D7D3CD",
"9 c #D9D5CF",
"0 c #D5D3D2",
"q c #DAD6D1",
"w c #DBD8D3",
"e c #E0D4C7",
"r c #E6DBC7",
"t c #E2D6CB",
"y c #E6DBCB",
"u c #EADDCB",
"i c #E4DBD5",
"p c #EBDED3",
"a c #E7DFDC",
"s c #ECDFD9",
"d c #EEE2CE",
"f c #F0E3CF",
"g c #EEE3D2",
"h c #EDE2DA",
"j c #F3E6D2",
"k c #F8E7D5",
"l c #F5E9D4",
"z c #F9EBD6",
"x c #F3E5DB",
"c c #F9E7DA",
"v c #F6ECDB",
"b c #FAECDA",
"n c #F7F0DE",
"m c #FAF0DD",
"M c #E7E2E1",
"N c #EEE5E2",
"B c #EFE8E5",
"V c #EEEAE9",
"C c #F3E6E1",
"Z c #F5EAE3",
"A c #F9EDE2",
"S c #F5ECE8",
"D c #F9EEE8",
"F c #F7F1E2",
"G c #FAF2E2",
"H c #F6F0EC",
"J c #FBF2E9",
"K c #FEF8EE",
/* pixels */
"#$$$$$$$$$$$$$$$$$$$$$$$$$$$$$$%$$%$$$$$$$$$$$$$$$$$%$$$$$%$$$$@",
"$4q8999wwqqq9qqq99q8899999qq07qqq0qqq0ww99999w9w9wqw9qw7q09iq03+",
"$wzzzbbASAzkzbzzzzzfllzbzzbbccxkxCBAAbcbbffvvzzzkbmbzbt6kbbzcx,.",
"$8ljlzzbACfkkujzlkjkzlzzzjkvZxjkksCckjkklffllzmljkbbkxipxbkfjz,.",
"$qljdjjjjksxxepcCxbkbzzmcAvxkjjkxNxxckjjjffzzzzzkjlvfjxhjzljkz>X",
"$8jdjjddufkzzjjkkcZZbFFmZCDbkjlljzvvkjjjdjklbzzllkfvjjcxxlllvb2X",
"$wjlldddjjjfddkzzzbbcAllzzcmzjzlzllvvlbvvxxgvbbkfkbjjflxbzllzm2X",
"$8jvjjlljkjuudjjmbzzkjjzzzbAvkjlzbkvvlzgNSSAvzmzkmlllkkbbzllvm1X",
"$wlllnllzzdlljljnlllldlzzzzzmFbkzbzzFxZCZbbbAAzbbblkzzzkxzkkzm2X",
"$wlllnllvjjllljjnllljdjjlzlbbbZzcFzxJcxhhcbADAmGmbffjzbxcbzkzG>X",
"$9ldllllvldllljlnmldddjdfljvzzFvZZjsJACxkkbcCckkFbjjlzzbSSkjmm2X",
"$9llllllfddflnllnnlljddddfjjdlvJNxxDHZCxxZcZNkjfvvzlfzbxZcjfzm2X",
"$9ldlllddddllnlnnnldjddddfffffjFxhbSHAzxxhxkxxjfvvfljzzyflffzz2X",
"$9lddllllldlllnnnnlljddrdfjflffbZBJcGGbkse5hjhxjlvllzzlljjlllz>X",
"$wldllllldddllnlllnljddrdjjjjkkkAJKJmbbhChixckkxjlzzzzzccblzzl>X",
"$wllllnlldddllnldddnngddfljjjzzcxAJJGGxihZcbkbAZzvzzllzbDbzlll>X",
"$9llnmmmjjjdlnmfdfldddlnfllzzbcZCAAAZAZmzzzzzbvAmmnvjjbzmAkjkj:X",
"$wlllmmmGnvvnnlfjmlldjdnzllzzvZCZDZxZbmGJmzbZZAblfjnjflzbcgpjk:X",
"$wlnmmmmnnlgnvljnznljjdjlkflbCzcCAzzFbzzmmmZxxbzlfdvZllzbbkuul:X",
"$8nnlllldjjjlvmllllllljdffklkCzkCckkzFzlzklvZbjfddddvmlbmbllgz>X",
"$qDZvJZvzlvvGbbjlzlzlllddfffjCckkzjjlGbvlljkxSxdddfflFbmzjjkhx:.",
"$qCxvZCvvhhzbbbjzzzzmljdjfddkcZCkkzzlbzjlzCxpZxkjjllvbvmjfjkjs-.",
"$qxvkkxCCCCxACxfzzzllllljfddfzzAvlllzvzjjkxvxAhxlllllnbGzjjffs,.",
"$0MhzkkCNxsxpfskzzmzzllljfdffkbxjffjzzjzzbxZxCsjzkkllvmmzzkfkh,.",
"$qBCxCxNxCasyppfzlnlllllznffzzsvkjzzjjzzzbCvbZxjzzzzjADSkshkkZ:X",
"$0SCxCNhCjsxvbjjnFvljjlllzllkbxzzbzzfjzzzzxigDHAzzzzxCSSjuxCxZ1X",
"$0VChxCCxkkjzzlzNClklvlljjjljvxzzzzzljlzzzzhsjSDzkkzxxtpssxcBS2o",
"$0NSScNaxkffflbkghjjvnlldjdjzvxzllbllfjzvvxhxsxAkfjkxpt69ZAABZ<X",
"$0CACcxsjfjzzbkljffklvlddddjllgzljjjjfjvvZSxjdbkfllzhjstsDxxxC,o",
"$qAcxhjffjzjzjfduffffvjdddlzlmZmzjzjjlzzxCvxcklbzklgsAAZDcxshk1o",
"$qbzkjkkkkzjlldffkljnjddddlljvnnvjfjjjlvvvkbJlkjjkCCCCAZSAZjkz:o",
"$qbkkjjkjjbjjffkzzllmljdddjlljlzFlffjjttvbkjvAzkkjxxCACiCsxckz1.",
"$wmmmzzmlmmfjjlllllnnlldfffllvvnggxkjxjkzmlllmFFvkjjkbgixNNCCc1o",
"$ymzzmmzmmldjllzlljlnnjddfflvh5ypxvvxkjkzmmzllzvvvzzzkutsCxCCZ1o",
"$wzzllzlldllllllzljjnnjddfflkgrdllbvzljzzmmmmllvvAzzkffskjssZA1o",
"$wlllldddddjljljlljjljdnlffflllljjzvvjzbmmmmzvfvmFvzkjfgyxp6tA1.",
"$9ldflfdldldjjjnllllnjvnllffllddjjjlvvnGmmmmlddnFGlzlflfuffdub>X",
"$9ldfffflflljjlllzlmllndfzbjdldddfjjdgvmlnmmlllFFFllffffulzbkk>X",
"$8ddjljlllllljllnnmmlnvffzbzllddjjffdjvllnnnlldFvvlvllffffllvf:X",
"$8llzzzlllrljjdglnlllmzfllllldldljjllmvfllldlnlnGvlllfffkjfffd-X",
"$9llzzzlzkypkfvljllllnndlllllldldjllmzllllllnndnFmzlllllkllddd;X",
"$wvvzmzlxhsfkjldlldllnndllldddlddlllllzzlllllldnnmllllllkljldd;X",
"$wllllzzxxhgkljjdllddlnlllldlldddldnlzzlllllllnnmnllllldllfddd;X",
"$8ldfjflxscxlljllllddllnlllddldddldlzzzzmlllddnnnnnldlljdfffdf;X",
"$9vjffffgjkglnlnldlndldnlllllldddllllllzzlldllngllnlddjldddddl>X",
"$8zjlljlZvxvndddddnddldnlldlddlldlnjlllllznldnndldgnljdjffldll>X",
"$9kkjzbbBvnldldddnllldddldlddlllljdlllmllmlddngddjldddjjjjljjz>X",
"$qDCvZDCgdnnlldrnllllndlllldllzdlnjllllnmnlddddlddlddjjjjfjldj>X",
"$wGJDZCCjshkzzjdndldnndlnllllzlljdjlllmmmlljdddllllljllfllkkjj-X",
"$qmbbxxCxkjjjjjjnndlnlllllllzzzzjjlzmmmmznddldlnlgldlzllldxxcb:.",
"$6llkjkCckjkjjvvdddlllllllddzzzzllllzmlzmllnnllllddllllzlpkChA,X",
"$8fdgfjZkxcjjvjdddlldlndlldlzzzllllffjlnmmnndlldldddfllljgjhu5&X",
"$8gdjjjZSAxbvvfdddrddlddddllllzzzzzjddfmnllllllldnlddlllxxsks6*o",
"$8dddlzbZcvmvlfddddrrldlllllllzzzzzllddfljllljlnnldddlfjhSkZcp,o",
"$8jjfjfjvCbblfffdddrrddddllllzzlzzlllljdlllllnnnldldlllvCCccCs:.",
"$wldflffcSvklllldddldldlllldllnnbzlllllnlnnnnlnnFnlllmmmxCxcxs<X",
"$wmjlllzzxxzzzzjdlldldllllllfjjlkvGmmmmmldllldlnGJGbzzzZxsxxhc<.",
"$9mnvvjkutbzzzbddlldlllllddlllljflzzmmmzdddlllllvvFFmzkkZCCxpk:o",
"$9vlllffitkzkllddllldlnlljldlljdlklzzllzddllllnllfzFblkkCZctyk1.",
"$9lljglfjjjzjfrrrdddddllmndllfdjfllfflfvldddddjnzllAFjjkcCxssk,o",
"$8jljdjlxjllffddddrdddjmnnjljljljfffdffddfdljjlllzllJjfkxAZxpp-o",
"$wjdfjvkxvklfdddddddddjmllnlllfffjllflljddjjljlvlzlvFZljkkcbff:o",
"$3;;-;:1<1>>===:;;;=;;;>>>2>;;:::;>;>>;;;==;;;;>>>222221:,1>,:%X",
"@O..XXXXo.XXXXXXXXX.XXXoXXooXXXXXXXXXXXXXXXXXXXXXXXXXXXoooo...X "
};
