/* XPM */
static char *result[] = {
/* columns rows colors chars-per-pixel */
"64 64 168 2 ",
"   c #7E6500",
".  c #806600",
"X  c #846A04",
"o  c #896E05",
"O  c #896F08",
"+  c #8C7106",
"@  c #8D720A",
"#  c #927507",
"$  c #93770C",
"%  c #957A0E",
"&  c #9A7D0B",
"*  c #977C10",
"=  c #987D10",
"-  c #9E800B",
";  c #9D8111",
":  c #A3850E",
">  c #A7880E",
",  c #AD8D0F",
"<  c #B18F09",
"1  c #B49107",
"2  c #B6940B",
"3  c #B9960C",
"4  c #BD990D",
"5  c #A68916",
"6  c #AB8D15",
"7  c #B19110",
"8  c #B99712",
"9  c #BC9A14",
"0  c #B0921B",
"q  c #BC9B1A",
"w  c #BFA024",
"e  c #C19D0F",
"r  c #C19E14",
"t  c #C09F19",
"y  c #C5A114",
"u  c #CAA514",
"i  c #CEA916",
"p  c #C3A21D",
"a  c #C9A61B",
"s  c #CCA91B",
"d  c #D1AB14",
"f  c #D2AD1C",
"g  c #D6B11D",
"h  c #DCB61D",
"j  c #DFB91E",
"k  c #E2BB1D",
"l  c #C6A524",
"z  c #C9A721",
"x  c #CCAA24",
"c  c #C7A628",
"v  c #CEAD2B",
"b  c #D1AE24",
"n  c #D0AE29",
"m  c #D6B325",
"M  c #DBB624",
"N  c #DEB924",
"B  c #D5B32C",
"V  c #D9B62C",
"C  c #DDB92B",
"Z  c #D4B333",
"A  c #D8B734",
"S  c #DCBA34",
"D  c #D6B73A",
"F  c #DDBC3B",
"G  c #E3BC22",
"H  c #E2BD2C",
"J  c #E1BE32",
"K  c #E1BF3A",
"L  c #E7C025",
"P  c #EBC324",
"I  c #E6C02C",
"U  c #EBC42C",
"Y  c #EFC82E",
"T  c #F4CA26",
"R  c #F9CF27",
"E  c #F0C728",
"W  c #F5CD2D",
"Q  c #F8CF2C",
"!  c #FDD32A",
"~  c #E6C233",
"^  c #E9C533",
"/  c #EEC934",
"(  c #E4C23B",
")  c #E9C63B",
"_  c #EDC93B",
"`  c #F3CD33",
"'  c #F3CE3B",
"]  c #F7D037",
"[  c #FDD434",
"{  c #F6D03C",
"}  c #FBD53B",
"|  c #FFD83E",
" . c #DCBD43",
".. c #DABE4B",
"X. c #DFC046",
"o. c #DFC24F",
"O. c #DFC350",
"+. c #E4C444",
"@. c #E9C744",
"#. c #ECCA43",
"$. c #E4C54C",
"%. c #E8C748",
"&. c #E7C84F",
"*. c #EBCA4A",
"=. c #F3CF41",
"-. c #F0CF4B",
";. c #F3D045",
":. c #F9D545",
">. c #FFD944",
",. c #F4D24B",
"<. c #F8D64D",
"1. c #FFDB4B",
"2. c #E2C555",
"3. c #ECCD53",
"4. c #E4C859",
"5. c #EDCF58",
"6. c #F5D553",
"7. c #F9D752",
"8. c #FDDB54",
"9. c #F6D659",
"0. c #F8D75A",
"q. c #F7D85C",
"w. c #FADA5C",
"e. c #DEC665",
"r. c #E1C867",
"t. c #E9CE61",
"y. c #E4CC6B",
"u. c #EDD265",
"i. c #F4D662",
"p. c #F6D862",
"a. c #F9DB63",
"s. c #F1D66B",
"d. c #F4D96F",
"f. c #FBDE6C",
"g. c #E3CC70",
"h. c #E7D072",
"j. c #EBD375",
"k. c #ECD57A",
"l. c #EFD97F",
"z. c #F5DB71",
"x. c #FCDF70",
"c. c #F4DB7C",
"v. c #F8DF78",
"b. c #FFE064",
"n. c #FFE26C",
"m. c #FDE273",
"M. c #FEE47C",
"N. c #EFD982",
"B. c #F2DC84",
"V. c #F4DE88",
"C. c #FFE682",
"Z. c #FFE887",
"A. c #F6E18E",
"S. c #FDE68A",
"D. c #FFE88B",
"F. c #F7E290",
"G. c #FAE695",
"H. c #FFEA93",
"J. c #F9E698",
"K. c #FEEB9C",
"L. c #FFEDA4",
"P. c #FFEEAC",
"I. c #FFF0AE",
"U. c #FFEFB0",
"Y. c #FFF0B4",
"T. c #FFF1BC",
"R. c #FFF2C1",
"E. c None",
/* pixels */
"E.E.E.E.E.E.E.E.E.E.E.E.E.E.E.E.E.E.E.E.E.E.E.E.E.E.E.E.E.E.E.E.E.E.E.E.E.E.E.E.E.E.E.E.E.E.E.E.E.E.E.E.E.E.E.E.E.E.E.E.E.E.E.E.",
"E.E.E.E.E.E.E.E.E.E.E.E.E.E.E.E.E.E.E.E.E.E.E.E.E.E.E.E.E.E.E.E.E.E.E.E.E.E.E.E.E.E.E.E.E.E.E.E.E.E...2.O.E.E.E.E.E.E.E.E.E.E.E.",
"E.E.E.E.E.E.E.E.E.E.E.E.E.E.E.E.E.E.E.E.E.E.E.E.E.E.E.E.E.E.E.E.E.E.E.E.E.E.E.E.E.E.E.E.E.E.E.y.y.j.c.C.M.t.E.E.E.E.E.E.E.E.E.E.",
"E.E.E.E.E.E.E.E.E.E.E.E.E.E.E.E.E.E.E.E.E.E.E.E.E.E.E.E.E.E.E.E.E.E.E.E.E.E.E.E.E.E.E.E.g.j.N.F.K.K.H.D.C.M.2.E.E.E.E.E.E.E.E.E.",
"E.E.E.E.E.E.E.E.E.E.E.E.E.E.E.E.E.E.E.E.E.E.E.E.E.E.E.E.E.E.E.E.E.E.E.E.E.E.E.E.E.E.j.N.F.K.P.Y.P.P.L.H.D.C.z.E.E.E.E.E.E.E.E.E.",
"E.E.E.E.E.E.E.E.E.E.E.E.E.E.E.E.E.E.E.E.E.E.E.E.E.E.E.E.E.E.E.E.E.E.E.E.E.E.E.h.N.F.J.P.U.Y.Y.R.Y.Y.I.L.H.D.C.t.E.E.E.E.E.E.E.E.",
"E.E.E.E.E.E.E.E.E.E.E.E.E.E.E.E.E.E.E.E.E.E.E.E.E.E.E.E.E.E.E.E.E.E.E.E.y.k.A.J.P.P.Y.Y.T.T.R.R.T.T.Y.P.L.H.Z.v...E.E.E.E.E.E.E.",
"E.E.E.E.E.E.E.E.E.E.E.E.E.E.E.E.E.E.E.E.E.E.E.E.E.E.E.E.E.E.E.E.E.e.j.V.J.K.P.Y.Y.Y.T.T.R.R.R.R.R.R.T.Y.L.K.D.C.s.E.E.E.E.E.E.E.",
"E.E.E.E.E.E.E.E.E.E.E.E.E.E.E.E.E.E.E.E.E.E.E.E.E.E.E.E.E.E.E.g.B.G.L.L.P.Y.T.T.T.R.R.R.R.R.R.R.R.R.R.T.U.L.H.Z.v...E.E.E.E.E.E.",
"E.E.E.E.E.E.E.E.E.E.E.E.E.E.E.E.E.E.E.E.E.E.E.E.E.E.E.E.r.k.A.K.L.P.U.Y.T.T.T.R.R.R.R.R.R.R.R.R.R.R.R.T.Y.L.K.Z.C.u.E.E.E.E.E.E.",
"E.E.E.E.E.E.E.E.E.E.E.E.E.E.E.E.E.E.E.E.E.E.E.E.E.e.h.B.G.L.P.Y.U.T.T.R.R.R.R.R.R.R.R.R.R.R.R.R.R.R.R.T.Y.P.K.Z.C.z.E.E.E.E.E.E.",
"E.E.E.E.E.E.E.E.E.E.E.E.E.E.E.E.E.E.E.E.E.E.E.y.l.A.K.P.I.Y.Y.Y.T.R.R.R.R.R.R.R.R.R.R.R.R.R.R.R.R.R.R.Y.Y.P.K.D.C.C.2.E.E.E.E.E.",
"E.E.E.E.E.E.E.E.E.E.E.E.E.E.E.E.E.E.E.E.r.j.A.J.L.P.Y.Y.T.T.R.R.R.R.R.R.R.R.R.R.R.R.R.R.R.T.R.T.T.Y.Y.Y.P.K.H.Z.C.C.u.E.E.E.E.E.",
"E.E.E.E.E.E.E.E.E.E.E.E.E.E.E.E.E.E.h.l.F.L.L.Y.Y.Y.T.R.R.R.R.R.R.R.R.R.R.R.R.R.R.R.T.T.T.Y.Y.Y.Y.P.P.L.K.H.Z.C.C.C.z.E.E.E.E.E.",
"E.E.E.E.E.E.E.E.E.E.E.E.E.E.E.r.j.V.J.P.I.Y.Y.T.T.R.R.R.R.R.R.R.R.R.T.T.T.T.T.Y.T.U.Y.U.P.P.L.L.L.K.K.H.D.Z.C.C.M.C.M.E.E.E.E.E.",
"E.E.E.E.E.E.E.E.E.E.E.E.E.y.c.F.K.I.I.Y.Y.Y.T.T.T.T.T.T.T.T.Y.Y.T.U.Y.Y.U.P.P.P.L.L.L.K.K.K.H.H.H.D.Z.C.C.C.C.C.M.C.M.4.E.E.E.E.",
"E.E.E.E.E.E.E.E.E.E.E.y.A.A.K.P.I.I.Y.Y.T.Y.T.Y.Y.Y.Y.Y.Y.P.P.P.I.L.L.L.L.K.K.K.H.H.D.D.D.Z.Z.Z.C.C.C.C.M.C.C.C.C.M.M.u.E.E.E.E.",
"E.E.E.E.E.E.E.E.E.O.C.A.K.K.P.I.I.I.Y.I.I.I.I.I.L.I.L.L.L.K.K.K.H.H.H.H.D.D.Z.Z.Z.Z.Z.Z.Z.M.Z.M.C.M.C.C.C.C.M.C.M.Z.M.u.E.E.E.E.",
"E.E.E.E.E.E.E.4.m.M.Z.H.K.K.L.L.L.L.L.L.K.K.H.K.H.H.D.H.D.D.D.Z.Z.Z.Z.Z.Z.Z.C.C.Z.C.C.C.C.C.M.Z.C.C.C.M.C.M.C.M.Z.M.Z.s.E.E.E.E.",
"E.E.E.E.E.2.z.M.M.Z.Z.D.D.H.H.H.H.D.D.D.D.D.Z.Z.Z.Z.Z.Z.Z.C.Z.C.C.C.C.C.C.M.C.C.C.C.C.M.C.C.Z.M.M.M.C.C.C.M.M.M.M.M.M.p.E.E.E.E.",
"E.E.E.o.s.M.C.C.M.Z.Z.Z.Z.Z.Z.Z.Z.Z.Z.Z.Z.Z.Z.C.C.C.C.C.C.C.C.C.C.M.C.M.M.M.M.M.m.m.M.m.n.n.n.n.n.b.b.b.b.8.8.8.1.1.1._ E.E.E.E.",
"E.E.t.M.C.C.C.C.M.Z.M.Z.Z.Z.Z.M.M.Z.M.M.M.M.M.m.m.m.m.n.n.n.b.a.b.w.8.b.8.8.1.1.1.>.>.| | } | [ [ [ ! [ ! ! ! ! ! ! ! T E.E.E.E.",
"E.u.M.M.m.m.m.m.n.n.n.b.b.b.b.8.b.1.8.1.1.1.>.>.| | } } [ [ [ [ [ ! ! ! ! ! ! ! ! ! ! ! ! ! ! ! ! R W ! ! ! W ! R W ! T E.E.E.E.",
"A :.1.1.1.>.>.| | | [ [ [ [ [ [ [ ! ! ! ! ! ! ! ! ! ! ! ! ! ! ! ! ! ! ! ! W ! W R ! W R W W W W W R W W W W W W W W ! R E.E.E.E.",
"s R ! ! ! ! ! ! ! ! R ! ! ! R ! ! ! ! ! ! ! ! ! ! ! W ! ! W Q ! W W W W W W W W T W W W W ` W W W W W U h G W W W W W W E.E.E.E.",
"g ! ! ! ! ! ! ! ! ! ! ! ! ! ! R R ! R ! W R W W ` W W W W W W W W ] W W W W W ] ] Y ] W ` W W Y ` W Y u 3 3 h W W ] ! T E.E.E.E.",
"g ! ! ! R k h T R R R R R W R W R W W W W W W W W W W W U N L W W W ` W ] W ` W W W Y W Y Y W ` ` W G y y 4 y Y W W W W E.E.E.E.",
"g ! ! ! j 4 1 d T R R R Q W W Q W W W W W W ` W W W ` N 4 1 4 N ` W / ] Y / ` ` ] / ] ` ] ] ` ` ` ` L s g f u U ` ` ] T E.E.E.E.",
"h ! ! R d d u u P ! Q Q W Q W W W W W W W ` W W ` ` U u 3 4 2 4 I ` ` ] ] ` ` ` ` / ] ] ` ] ` ` ` ` ^ M L M m / ` ` ` T s E.E.E.",
"h ! ! ! h j k d P Q Q W W Y W W ` W W W ` W ` W W ` U y u i y 4 M ` ` / ` ` ` H s s I ` ` _ ` ` ` ` ] I L N I ` ` ` ] W s E.E.E.",
"j ! ! ! P k P k Y W W W Q W Y L L W ` ` ` ` ` ` ` ` I s m N f u M ] ` ' ' ` ^ r 2 4 s / ' ` ] ' ' ] / ] / / / ' ` ` ` W s E.E.E.",
"j ! ! ! R R T T R W W W W Y g 4 4 N W ` W / ` ` ` ` / M N I C s H ' ' ` ' ] H r s s s / ' ' _ ' ] _ ` ' ' ' ] ` ' ` ] W s E.E.E.",
"k ! ! ! ! ! ! W W W W W ` U y y 4 u Y / ` ` ` ` ` ' ] I C I C V / ' ' ' ' ' H s C C m _ ] { ] _ / ' ' ' ' ' ' ' ' ` ` ` E.E.E.E.",
"k ! ! ! ! ! W W G h U ` ` L i g g i Y ] ` ` ' ` ' ] _ ' / ^ I / ' ' ' { ' =._ V C I ( ] ' =.( a y m _ ' ' ' ' ' ' ' ` W E.E.E.E.",
"P ! ! ! ! ! W U s g N Y W Y M H N M / ] ' ' ' ' ' ] { _ { _ ' =.' ' ' =.=.' ' ) ( _ _ =.=.=.b 4 3 4 H =.' ' =.' ' ' ' ` E.E.E.E.",
"L ! ! ! ! ! ! N i G G Y ` ` Y I I ^ / ' ] _ ' ' ] _ ' ' { ;.=.' =.;.;.=.;.;.;.;.;.;.;.=.;.) a z x p b =.;.' ;.' ' ;.' W E.E.E.E.",
"L ! ! ! ! ! ! L i m N ` ` ` ` / / ] ] _ ' ' ' ' =.' =.=.=.=.=.;.;.;.;.;.;.;.=.;.;.;.;.;.;.#.B V J b V ;.;.' =.=.;.{ { T E.E.E.E.",
"L ! ! ! ! ! ! W N M U ` ` ` ' ' ] _ ' { ' ' =.=.=._ ) =.;.;.;.;.;.;.;.;.;.,.;.,.;.,.,.,.,.;.( J ( V ( ;.;.;.;.;.{ ;.{ Y E.E.E.E.",
"P ! ! ! ! ! ! ] ` ` ` ' ` ' ' ' _ { ' ' ' ' { ;.) m B ) ;.;.;.,.,.;.,.,.,.,.,.,.,.,.,.,.,.,.;.#.) @.;.,.;.;.;.;.;.=.} U E.E.E.E.",
"P ! ! ! ! ! ! ` ` ` ' ` ' ` ' ' { { _ ;.=.=.=.;.V x C J ;.;.,.;.,.,.,.,.6.,.6.,.6.,.6.,.,.,.6.,.,.,.,.,.,.,.,.;.;.;.} Y E.E.E.E.",
"k ! ! ! ! ! ! ! ` ' ` ` ' ' ' ' { _ { ;.;.;.;.;.V b S K ;.,.,.,.,.6.-.S S *.6.6.6.6.6.,.,.6.,.,.6.,.,.,.,.,.,.,.,.;.} L E.E.E.E.",
"P ! ! ! ! ! ! [ ` ` ' ' ' _ ' ' ;.;.#.=.;.;.;.;.) n V @.,.,.6.,.6.-.B 8 3 p *.6.6.7.6.6.9.7.9.6.6.6.6.,.,.,.,.,.,.;.} L E.E.E.E.",
"k ! ! ! ! ! ! ` ` ' { _ M V ^ ;.{ =.;.;.,.;.;.,.,.) @.,.6.6.6.6.6.@.p t 9 8 Z 6.9.9.q.9.9.7.9.9.6.6.6.6.6.6.,.,.,.;.} G E.E.E.E.",
"k ! ! ! ! ! ! ] ' ' ] C s V J ' =.;.;.;.;.;.,.,.,.,.6.,.6.6.6.6.9.+.l Z Z l c 9.9.q.9.q.q.9.9.9.0.6.6.6.6.6.6.,.,.,.} N E.E.E.E.",
"P ! ! ! ! ! [ ] ' ' ' m b J S ' ;.;.;.,.,.,.,.,.6.,.6.6.7.9.9.9.q.*.D X.+.Z Z 9.w.w.q.p.q.q.q.9.9.0.6.9.6.7.6.6.,.,.[ M E.E.E.E.",
"k ! ! ! ! ! E H ^ ' ' C s m ~ ;.;.;.,.#.#.#.,.,.,.6.9.9.9.9.0.q.q.9.X.&.3.D X.p.p.b.a.a.a.a.a.q.q.q.9.0.9.6.6.6.6.;.[ M E.E.E.E.",
"j ! ! ! ! P e 2 4 H ;._ J ~ #.;.;.;.*.m 9 r S 6.7.6.9.9.9.9.q.a.a.a.9.3.&.&.p.a.b.a.a.a.a.p.a.a.a.q.q.9.%.F +.6.6.:.! s E.E.E.E.",
"h ! ! ! R d 3 e 3 a _ ' =.=.;.;.;.,.V 2 3 8 t +.7.9.9.9.q.w.q.a.a.a.a.a.p.a.n.f.n.d.n.d.p.9.5.a.a.q.a.+.q 2 9 ( 6.:.] 9 E.E.E.E.",
"g R ! ! T u i f i a ( { ;.;.;.;.,.#.a 9 z x a F 6.9.9.q.p.a.p.a.a.a.f.f.f.f.x.x.f.f.f.i.D w v 3.a.a.9.Z t l 9 x ,.:.W 6 E.E.E.E.",
"i R ! ! ! h m H M x _ ;.;.;.;.;.,.#.a x A S v F 9.9.w.q.q.p.a.a.f.f.f.f.m.m.m.m.m.m.m...9 q 8 Z q.a.9.Z B D v v ,.:.T :   E.E.E.",
"E.T ! ! ! L N ~ C C ;.=.=.;.,.;.,.#.B V +.+.A *.9.9.3.A D 5.a.f.f.f.x.m.m.m.m.m.m.m.f.D c Z v v 9.a.p.+.F %.S A ,.:.Y -   E.E.E.",
"E.y R ! ! W U ^ ^ _ { =.;.;.;.,.,.,.( A ) +.+.6.9.9.v 1 2 Z a.a.f.f.f.v.m.m.M.M.m.M.f. .D 2.X.D 9.a.q.3.+.$.( *.6.} P &   . E.E.",
"E.# 7 g L P W ` ` { { ' ;.;.;.,.,.,.,.*.#.*.6.9.9.6.p q 9 l i.f.f.n.f.m.m.m.m.m.m.m.x.3.X.5.$.$.i.p.a.9.6.3.3.6.,.} L #   . E.E.",
"E.E.  # & > 8 a M I ` [ { { { :.;.:.,.,.,.6.6.6.9.5.v Z Z Z p.n.d.a.f.x.z.m.m.m.m.f.f.d.5.3.5.q.a.p.q.q.9.9.6.7.:.[ f o . . . E.",
"E.E.E.E.    X + # & 6 q x C I ` ] ;.;.:.,.,.6.7.7.0.%.F X.3.a.a.f.n.f.f.f.f.n.f.f.n.f.f.a.a.a.a.p.0.0.9.7.9.<.:.] N -   . . . E.",
"E.E.E.E.E.E.E.  . . . . o # & 5 q z m J ^ ' #.=.,.:.7.,.,.w.0.w.a.a.a.a.f.a.f.f.f.a.a.a.a.a.q.q.0.0.8.7.<.:.{ U a & . . . . . . ",
"E.E.E.E.E.E.E.E.E.E.E.E.. . . X . X O $ - 6 q l v V J ( #.#.;.,.,.<.7.7.0.0.8.w.0.w.8.7.8.7.7.<.,.,.=._ ~ V t : o   . . . . . . ",
"E.E.E.E.E.E.E.E.E.E.E.E.E.E.E.E.E.. .         X o @ $ ; 5 0 q w c v Z Z S F K ( ( ( ( F F F A B v c q 6 = @     . . . . . . . . ",
"E.E.E.E.E.E.E.E.E.E.E.E.E.E.E.E.E.E.E.E.E.. . .                 X X O @ @ $ % % * * = % % $ @ @ o .         . . . . . . . . . E.",
"E.E.E.E.E.E.E.E.E.E.E.E.E.E.E.E.E.E.E.E.E.E.E.E.E.E.E..     . . . .                         .       . . . . . . . . . . . . . E.",
"E.E.E.E.E.E.E.E.E.E.E.E.E.E.E.E.E.E.E.E.E.E.E.E.E.E.E.E.E.E.E.E.. . . . . . . . . . . . . . . . . . . . . . . . . . . . . . E.E.",
"E.E.E.E.E.E.E.E.E.E.E.E.E.E.E.E.E.E.E.E.E.E.E.E.E.E.E.E.E.E.E.E.E.E.E.E.E.E.. . . . . . . . . . . . . . . . . . . . . . . E.E.E.",
"E.E.E.E.E.E.E.E.E.E.E.E.E.E.E.E.E.E.E.E.E.E.E.E.E.E.E.E.E.E.E.E.E.E.E.E.E.E.E.E.E.E.E.E.E.. . . . . . . . . . . . . . . E.E.E.E.",
"E.E.E.E.E.E.E.E.E.E.E.E.E.E.E.E.E.E.E.E.E.E.E.E.E.E.E.E.E.E.E.E.E.E.E.E.E.E.E.E.E.E.E.E.E.E.E.E.E.E.E.E.. . . . . . E.E.E.E.E.E."
};
