/* XPM */
static char *_f080a2862074665ced91415bfe9ad16T7essit7zQiMWb12[] = {
/* columns rows colors chars-per-pixel */
"64 64 131 2 ",
"   c None",
".  c #000000",
"X  c #0B0400",
"o  c #120601",
"O  c #160801",
"+  c #1B0A01",
"@  c #240D02",
"#  c #2A0F01",
"$  c #2D1103",
"%  c #341403",
"&  c #3B1603",
"*  c #3F1804",
"=  c #401702",
"-  c #431903",
";  c #4B1C04",
":  c #511E04",
">  c #552105",
",  c #5C2305",
"<  c #632606",
"1  c #672806",
"2  c #6C2A07",
"3  c #732C07",
"4  c #7A2F07",
"5  c #762D08",
"6  c #792F08",
"7  c #7D3007",
"8  c #7C3008",
"9  c #833207",
"0  c #843308",
"q  c #8C3609",
"w  c #8F3809",
"e  c #94390A",
"r  c #9D3D0A",
"t  c #A23F0A",
"y  c #A5400A",
"u  c #A7420B",
"i  c #A7420B",
"p  c #A9410A",
"a  c #A8410B",
"s  c #AB420B",
"d  c #AC430B",
"f  c #AD430B",
"g  c #AE440B",
"h  c #AC420C",
"j  c #A9420B",
"k  c #B1450B",
"l  c #B3450B",
"z  c #B3460C",
"x  c #B3470C",
"c  c #B4460C",
"v  c #B4470C",
"b  c #B5470C",
"n  c #B2450C",
"m  c #B8480C",
"M  c #B9480C",
"N  c #BA490C",
"B  c #BB490C",
"V  c #BB4B0D",
"C  c #BF4B0C",
"Z  c #BE4B0D",
"A  c #BF4C0D",
"S  c #BD4A0C",
"D  c #C04B0C",
"F  c #C14C0D",
"G  c #C34C0D",
"H  c #C24D0D",
"J  c #C34D0D",
"K  c #C74E0D",
"L  c #C64F0D",
"P  c #C74F0D",
"I  c #C34D0D",
"U  c #C94E0D",
"Y  c #C7500E",
"T  c #C9500D",
"R  c #CA500D",
"E  c #C8500E",
"W  c #CC510E",
"Q  c #CD520E",
"!  c #CD510E",
"~  c #D2540E",
"^  c #D6560E",
"/  c #D7560F",
"(  c #D3540E",
")  c #D9570E",
"_  c #D8570F",
"`  c #D9570F",
"'  c #D9560F",
"]  c #DA580F",
"[  c #DA590F",
"{  c #DB590F",
"}  c #DC580F",
"|  c #DC590F",
" . c #DD590F",
".. c #DF580F",
"X. c #DD5A10",
"o. c #DD5B10",
"O. c #DF5A10",
"+. c #E2570F",
"@. c #E45A0F",
"#. c #E15B10",
"$. c #E15C10",
"%. c #E25C10",
"&. c #E45C10",
"*. c #E45D10",
"=. c #E65D10",
"-. c #E55D10",
";. c #EA5D10",
":. c #E96010",
">. c #EB6110",
",. c #EB6211",
"<. c #EF6311",
"1. c #ED6211",
"2. c #F06311",
"3. c #F16411",
"4. c #F16511",
"5. c #F26411",
"6. c #F26411",
"7. c #FC6412",
"8. c #F86912",
"9. c #FA6A12",
"0. c #FB6B13",
"q. c #FC6C12",
"w. c #FD6C13",
"e. c #FE6E13",
"r. c #FF6F13",
"t. c #FD6C13",
"y. c #FF7013",
"u. c #FF7113",
"i. c #FF7114",
"p. c #FF7214",
"a. c #FF7013",
/* pixels */
"                                          . . .                       . . .         . . .                                       ",
"                                        . X X X                       X X X         X X X                                       ",
"                                        = , < : #                   % > < > %     % > < , &                                     ",
"                                  . . o 3 E } y & . . . . . . . . X , M  .M > . . ; k O.B , X . .                               ",
"                                  . . X 8 2.i.L - . . . . . . . . X 1 %.p.} < . X > ` i.=.2 X . .                               ",
"                                  @ @ % 6 L ` r & . . . . . . . . X : m { k ; X . - h X.B , X . .                               ",
"              . .           . . & 6 r e 3 , , - O . . . . . . . . . + ; , ; + . . + ; , : @ . . . . . . . . .                   ",
"            . . . .       . . . - F 0.%.6 O X . . . . . . . . . . . . X X X . . . . . X X . . . . . . . . . . .                 ",
"            . . . X       . . . ; H 0.%.3 X . . . . . . . . . . . . . . . . . . . . . . . . . . . . . . . . X .                 ",
"            = > > =       . . . $ 8 i e ; X . . . . . . . . . . . . . . . . . . . . . . . . . . . . . . $ ; > - @               ",
"      . . @ 0 U W q @ . . . . . X + $ @ o . . . . . . . . . . . . . . . . . . . . . . . . . . . . . . o < H ~ r % . .           ",
"      . . $ t 9.w.h $ . . . . . . . . . . . . . . . . . . . . . . . . . . . . . . . . . . . . . . . . O 0 4.i.H & . . .         ",
"      . . @ 0 ` X.q @ . . . . . . . . . . . . . . . . . . . . . . . . . . . . . . . . . . . . . . . . O 2 E %.s ; + + O         ",
"      . . O * 1 1 - o . . . . . . . . . . . . . . . . . . . . . . . . . . . . . . . . . . . . . . . . X % < 2 2 8 q 9 , O .     ",
"      . . . . X X X . . . . . . . . . . . . . . . . . . . . . . . . . . . . . . . . . . . . . . . . . . . X X % h 4.%.9 + . .   ",
"      . . . . . . . . . . . . . . . . . . . . . . . . . . . . . . . . . . . . . . . . . . . . . . . . . . . . % b w.,.q + . .   ",
"    # = ; % O . . . . . . . . . . . . . . . . . . . . . . . . . . . . . . . . . . . . . . . . . . . . . @ * - , q z s < O . .   ",
". X : p E y - X . . . . . . . . . . . . . . . . . . . . . . . . . . . . . . . . . . . . . . . . . . . o , b E r > % % #         ",
". X < O.u.} < . . . . . . . . . . . . . . . . . . . . . . . . . . . . . . . . . . . . . . . . . . . . O 9 ,.i.B % . .           ",
". X , L ,.H > X . . . . . . . . . . . . . . . . . . . . . . . . . . . . . . . . . . . . . . . . . . . o 3 ^ ,.g * o o X         ",
"  X = 2 8 1 # . . . . . . . . . . . . . . . . . . . . . . . . . . . . . . . . . . . . . . . . . . . . X & 2 8 3 5 9 5 : O .     ",
"      X X X . . . . . . . . . . . . . . . . . . . . . . . . . . . . . . . . . . . . . . . . . . . . . . X X o * p >.} 9 O . .   ",
"      . . . . . . . . . . . . . . . . . . . . . . . . . . . . . . . . . . . . . . . . . . . . . . . . . . . . % V w.2.q + . .   ",
"    @ % & % O . . . . . . . . . . . . . . . . . . . . . . . . . . . . . . . . . . . . . . . . . . . . . . . . # 0 A b 2 O . .   ",
". X ; r V e = . . . . . . . . . . . . . . . . . . . . . . . . . . . . . . . . . . . . . . . . . . . . . . . . X $ * * %         ",
". X < } u.{ , X . . . . . . . . . . . . . . . . . . . . . . . . . . . . . . . . . . . . . . . . . . . . . . . . . . .           ",
". X < W 4.E > X . . . . . . . . . . . . . . . . . . . . . . . . . . . . . . . . . . . . . . . . . . . . . . . . X X X X         ",
". X = 6 q 2 $ . . . . . . . . . . . . . . . . . . . . . . . . . . . . . . . . . . . . . . . . . . . . . . . . O ; 2 2 ; o       ",
"      O + o X . . . . . . . . . . . . . . . . . . . . . . . . . . . . . . . . . . . . . . . . . . . . . . . . % y @.^ 6 + . .   ",
"      . . . . . . . . . . . . . . . . . . . . . . . . . . . . . . . . . . . . . . . . . . . . . . . . . . . . * A w.5.q + . .   ",
"      . . . . . . . . . . . . . . . . . . . . . . . . . . . . . . . . . . . . . . . . . . . . . . . . . . . . $ w E S 3 O . .   ",
"            . . . . . . . . . . . . . . . . . . . . . . . . . . . . . . . . . . . . . . . . . . . . . . . . . o % : ; &         ",
"            . . . . . . . . . . . . . . . . . . . . . . . . . . . . . . . . . . . . . . . . . . . . . . . . . . . . . X         ",
"            X X X X . . . . . . . . . . . . . . . . . . . . . . . . . . . . . . . . . . . . . . . . . . . . . . . . . .         ",
"            ; , , * X . . . . . . . . . . . . . . . . . . . . . . . . . . . . . . . . . . . . . . . . . . . . . . . .           ",
"      . . + 0 ~ ( q @ . . . . . . . . . . . . . . . . . . . . . . . . . . . . . . . . . . . . . . . . . . . . .                 ",
"      . . + r 0.w.h $ . . . . . . . . . . . . . . . . . . . . . . . . . . . . . . . . . . . . . . . . . . . . .                 ",
"      @ @ * w ~ ~ 0 @ . . . . . . . . . . . . . . . . . . . . . . . . . . . . . . . . . . . . . . . . . o @ @ @                 ",
". X ; 0 r q 2 < , & X . . . . . . . . . . . . . . . . . . . . . . . . . . . . . . . . . . . . . . . . X ; q r 6 % . .           ",
". X < ( 0.~ , X . X . . . . . . . . . . . . . . . . . . . . . . . . . . . . . . . . . . . . . . . . . O 8 *.9.V & . . .         ",
". X < ` w.~ > . . . . . . . . . . . . . . . . . . . . . . . . . . . . . . . . . . . . . . . . . . . . O 8 ,.q.B * . . .         ",
". . ; w i 0 & . . . . . . . . . . . . . . . . . . . . . . . . . . . . . . . . . . . . . . . . . . . . X ; e i q < > : &         ",
"      # $ @ X . . . . . . . . . . . . . . . . . . . . . . . . . . . . . . . . . . . . . . . . . . . . . O # $ ; r ~ L 3 + . .   ",
"      . . . . . . . . . . . . . . . . . . . . . . . . . . . . . . . . . . . . . . . . . . . . . . . . . . . . % B w.5.w + . .   ",
"      . . . o + + + + + + X . . . . . . . . . . . . . . . . . . . . . . . . . . . . . . . . . . . . . . . . . $ r @.^ 4 O . .   ",
"      . . O : 0 q 9 0 q 3 & . . . . . . . . . . . . . . . . . . . . . . . . . . . . . . . . . . . . . . . . . + ; 2 < -         ",
"      . . @ e *.;.;.;.;.U < X . . . . . . . . . . . . . . . . . . . . . . . . . . . . . . . . . . . . . . . . . . X X X         ",
"      . . @ r 6.7.7.7.7.` 2 X . . . . . . . . . . . . . . . . . . . . . . . . . . . . . . . . . . . . . . . . . . . . .         ",
"      . . @ 3 t n Z +.7.~ < X . . . . . . . . . . . . . . . . . . . . . . . . . . . . . . . . . O % ; * @ . . . . . .           ",
"            # % % 3 ~ 7.( < X . . . . . . . . . . . . . . . . . . . . . . . . . . . . . . . . . % e Y z , X . .                 ",
"            . . . ; ! w...2 X . . . . . . . . . . . . . . . . . . . . . . . . . . . . . . . . . ; U i.,.4 o . .                 ",
"            . . . ; M =.K 1 X . . . . . X o O X . . . . . . . . . . . o O o X . . . o O O X . . * z ,.( 3 o . .                 ",
"                  % 1 8 2 - X   . . . X & 3 7 , @ . . . . . . . . . % 2 0 2 $ . . # 1 9 2 % . . + , 8 3 - X                     ",
"                    o o X         . . o 5 { ,.k * . . . . . . . . X > F ;.F ; . . : A 1.Q < X . . X o o o                       ",
"                    . . .         . . O 0 ,.w.L - . . . . . . . . X < ( w.( , X . > ( i.%.2 X . . . . .                         ",
"                    . . .         . . O 1 k H q $ . . + % & $ o . X , ( 7.Q > . . & r H s , X . . . . .                         ",
"                                        $ & - % X . X ; t B w % . . , ~ 7.! > X . O % - * #                                     ",
"                                        . . . . . . o 5 *.w.~ ; . X < ` w.( , . . . . . .                                       ",
"                                          . . . . . X 2 ` 4.F ; . X , U 2.G : X . . . . .                                       ",
"                                            . . . . X ; 6 q 3 % . X = 3 q 3 = X . . . .                                         ",
"                                                      O O + O         O O O                                                     ",
"                                                        . . .         . . .                                                     ",
"                                                        . . .         . . .                                                     ",
"                                                                                                                                "
};
