/* XPM */
static char *tile000_resized[] = {
/* columns rows colors chars-per-pixel */
"64 64 153 2 ",
"   c None",
".  c #443E31",
"X  c #453E31",
"o  c #424033",
"O  c #464033",
"+  c #474033",
"@  c #454134",
"#  c #484134",
"$  c #494235",
"%  c #4A4437",
"&  c #4E493B",
"*  c #51483B",
"=  c #50493C",
"-  c #544E40",
";  c #554F41",
":  c #564F41",
">  c #574F41",
",  c #565042",
"<  c #575042",
"1  c #585143",
"2  c #595244",
"3  c #5A5345",
"4  c #5B5445",
"5  c #5B5446",
"6  c #5C5446",
"7  c #5C5547",
"8  c #5E5648",
"9  c #5F5648",
"0  c #5E5748",
"q  c #5F5749",
"w  c #605548",
"e  c #60594A",
"r  c #625A4A",
"t  c #625B4C",
"y  c #645D4D",
"u  c #655D4D",
"i  c #655E4E",
"p  c #665E4F",
"a  c #665F4F",
"s  c #675F4F",
"d  c #695B4E",
"f  c #695C4E",
"g  c #755545",
"h  c #675F50",
"j  c #6A5F51",
"k  c #68604F",
"l  c #646252",
"z  c #676252",
"x  c #686050",
"c  c #686151",
"v  c #696151",
"b  c #696251",
"n  c #696252",
"m  c #6A6252",
"M  c #6B6252",
"N  c #6B6353",
"B  c #6C6052",
"V  c #6C6153",
"C  c #6D6153",
"Z  c #6B6453",
"A  c #6D6254",
"S  c #6E6254",
"D  c #6F6355",
"F  c #6C6554",
"G  c #6F6655",
"H  c #6D6756",
"J  c #706355",
"K  c #706456",
"L  c #756554",
"P  c #776755",
"I  c #736658",
"U  c #746658",
"Y  c #756759",
"T  c #726A58",
"R  c #726B59",
"E  c #766B5B",
"W  c #746C5A",
"Q  c #756C5A",
"!  c #736B5C",
"~  c #746C5D",
"^  c #776F5C",
"/  c #796B5D",
"(  c #7A6B5D",
")  c #7B6D5E",
"_  c #7C6D5F",
"`  c #7C6E5E",
"'  c #7D6F60",
"]  c #7A7262",
"[  c #804E3E",
"{  c #866554",
"}  c #8C6B59",
"|  c #8E6C59",
" . c #976654",
".. c #BB6652",
"X. c #917D6F",
"o. c #937D6F",
"O. c #DB654F",
"+. c #C06B57",
"@. c #E16C56",
"#. c #EF6A54",
"$. c #F16C56",
"%. c #F96D56",
"&. c #FA6D56",
"*. c #868073",
"=. c #878174",
"-. c #888175",
";. c #888274",
":. c #898376",
">. c #9B8376",
",. c #998476",
"<. c #9A8476",
"1. c #9B8477",
"2. c #9E8578",
"3. c #9F887A",
"4. c #A0887A",
"5. c #A38A7C",
"6. c #A58C7F",
"7. c #9A8F82",
"8. c #A88E80",
"9. c #A99082",
"0. c #AA9083",
"q. c #AE9486",
"w. c #AE988A",
"e. c #B19688",
"r. c #B5978A",
"t. c #B5988B",
"y. c #B6988B",
"u. c #B69A8C",
"i. c #B79B8D",
"p. c #BA9B8E",
"a. c #BA9C8F",
"s. c #BC9D90",
"d. c #BD9E91",
"f. c #BD9F91",
"g. c #BF9F92",
"h. c #C0A093",
"j. c #C2A395",
"k. c #C3A496",
"l. c #C4A496",
"z. c #C5A597",
"x. c #C5A598",
"c. c #C6A698",
"v. c #C7A799",
"b. c #C8A89A",
"n. c #C9A89A",
"m. c #C9A99A",
"M. c #C9A99B",
"N. c #CAA99B",
"B. c #CAAA9C",
"V. c #CCAB9D",
"C. c #C4C1BA",
"Z. c #C5C2BC",
"A. c #C9C5BE",
/* pixels */
"                                                                                                                                ",
"                                                                                                                                ",
"                                                                                                                                ",
"                                                                                                                                ",
"                                                                                                                                ",
"                                                                                                                                ",
"                                                                                                                                ",
"                                                                                                                                ",
"                                                                                                                                ",
"                                                                                                                                ",
"                                                                                                                                ",
"                                                                                                                                ",
"                                                                                                                                ",
"                                                                                                                                ",
"                                                                                                                                ",
"                                                                                                                                ",
"                                                                                                                                ",
"                                                                                                                                ",
"                                                                                                                                ",
"                                                                                                                                ",
"                                                                                                                                ",
"                                                                                                                                ",
"                                                                                                                                ",
"                                                                                                                                ",
"                                                                                                                                ",
"                                                                                                                                ",
"                                                                                                                                ",
"                                                                                                                                ",
"                                                                                                                                ",
"                                                                                                                                ",
"                                                                                                                                ",
"                                                                                                                                ",
"                                                                                                                                ",
"                                                                                                                                ",
"                                                                                                                                ",
"                                                                                                                                ",
"                                                                                                                                ",
"                                                                                                                                ",
"                                                                                                                                ",
"                                                                                                                                ",
"                                                                                                                                ",
"                                                                                                                                ",
"                                                                                                                                ",
"                                                                                                                                ",
"                                                                                                                                ",
"                                                                                                                                ",
"                                        $ $ # +         X O # $                                                                 ",
"                                        @ % = >         f w * #                                                                 ",
"                                        o & r G Q T k ) 3.o.w O                                                                 ",
"                                        [ g P ^ W ] ;.7.w.4.d .                                                                 ",
"                                    &.#.O...| R F :.C.A.7.`                                                                     ",
"                                    %.$.@.+.} H c =.Z.C.*.u                                                                     ",
"                                         .{ L Z b ~ -.=.! x b N                                                                 ",
"                                        l z n m m v s s v m m m                                                                 ",
"                                            n m m b x x b m m m N p 7 1 1 1                                                     ",
"                                            m m m m m m m m m b h t 5 1 1 1                                                     ",
"                                            m m m m m N m N N h e 5 2 1 1 < : Y q.V.                                            ",
"                                            v b m v i y i p p t 4 < 1 1 < ; ; I 0.v.                                            ",
"                                            c v m a 0 3 5 7 7 5 2 1 1 < : - ; J 5.h.c.n.m.m.                                    ",
"                                            ' E M x K V 8 < < < < , < 9 C S 9 C 2.s.x.v.z.k.                                    ",
"                                            6.X.V D <.<.C : , < , ; : A ,.9.            s.a.                                    ",
"                                            g.8.U / u.i._ - ; q B j 6 ( e.M.            r.t.                                    ",
"                                            c.f.    j.k.        1.>.    t.d.    B.l.a.r.                                        ",
"                                            b.N.    M.M.        p.p.    y.r.    M.l.a.t.                                        "
};
